<?xml version="1.0" encoding="UTF-8" standalone="no"?>
<!DOCTYPE svg PUBLIC "-//W3C//DTD SVG 1.1//EN"
 "http://www.w3.org/Graphics/SVG/1.1/DTD/svg11.dtd">
<!-- Generated by graphviz version 2.40.1 (20161225.0304)
 -->
<!-- Title: %3 Pages: 1 -->
<svg width="348pt" height="192pt"
 viewBox="0.00 0.00 348.00 192.00" xmlns="http://www.w3.org/2000/svg" xmlns:xlink="http://www.w3.org/1999/xlink">
<g id="graph0" class="graph" transform="scale(1 1) rotate(0) translate(4 188)">
<title>%3</title>
<polygon fill="#ffffff" stroke="transparent" points="-4,4 -4,-188 344,-188 344,4 -4,4"/>
<!-- a -->
<g id="node1" class="node">
<title>a</title>
<ellipse fill="none" stroke="#000000" cx="94" cy="-60" rx="18" ry="18"/>
<ellipse fill="none" stroke="#000000" cx="94" cy="-60" rx="22" ry="22"/>
<text text-anchor="middle" x="94" y="-55.8" font-family="Times,serif" font-size="14.00" fill="#000000">a</text>
</g>
<!-- b -->
<g id="node2" class="node">
<title>b</title>
<ellipse fill="none" stroke="#000000" cx="170" cy="-77" rx="18" ry="18"/>
<text text-anchor="middle" x="170" y="-72.8" font-family="Times,serif" font-size="14.00" fill="#000000">b</text>
</g>
<!-- a&#45;&gt;b -->
<g id="edge2" class="edge">
<title>a&#45;&gt;b</title>
<path fill="none" stroke="#000000" d="M115.5753,-64.826C123.9024,-66.6887 133.5325,-68.8428 142.3561,-70.8165"/>
<polygon fill="#000000" stroke="#000000" points="141.6945,-74.2549 152.2174,-73.0223 143.2226,-67.4237 141.6945,-74.2549"/>
</g>
<!-- c -->
<g id="node3" class="node">
<title>c</title>
<ellipse fill="none" stroke="#000000" cx="246" cy="-108" rx="18" ry="18"/>
<ellipse fill="none" stroke="#000000" cx="246" cy="-108" rx="22" ry="22"/>
<text text-anchor="middle" x="246" y="-103.8" font-family="Times,serif" font-size="14.00" fill="#000000">c</text>
</g>
<!-- a&#45;&gt;c -->
<g id="edge3" class="edge">
<title>a&#45;&gt;c</title>
<path fill="none" stroke="#d3d3d3" stroke-dasharray="5,2" d="M109.6246,-76.1C120.4697,-86.1205 135.8281,-98.1744 152,-104 171.7467,-111.1134 195.3526,-112.0936 213.9687,-111.3054"/>
<polygon fill="#d3d3d3" stroke="#d3d3d3" points="214.245,-114.7951 224.013,-110.6918 213.8182,-107.8082 214.245,-114.7951"/>
</g>
<!-- d -->
<g id="node4" class="node">
<title>d</title>
<ellipse fill="none" stroke="#000000" cx="246" cy="-31" rx="18" ry="18"/>
<ellipse fill="none" stroke="#000000" cx="246" cy="-31" rx="22" ry="22"/>
<text text-anchor="middle" x="246" y="-26.8" font-family="Times,serif" font-size="14.00" fill="#000000">d</text>
</g>
<!-- a&#45;&gt;d -->
<g id="edge1" class="edge">
<title>a&#45;&gt;d</title>
<path fill="none" stroke="#000000" d="M115.7779,-55.845C141.5127,-50.9351 184.5549,-42.7231 214.0613,-37.0936"/>
<polygon fill="#000000" stroke="#000000" points="215.0956,-40.4594 224.2625,-35.1473 213.7837,-33.5835 215.0956,-40.4594"/>
</g>
<!-- b&#45;&gt;c -->
<g id="edge5" class="edge">
<title>b&#45;&gt;c</title>
<path fill="none" stroke="#d3d3d3" stroke-dasharray="5,2" d="M186.8669,-83.8799C195.3944,-87.3582 206.0038,-91.6858 215.8724,-95.7111"/>
<polygon fill="#d3d3d3" stroke="#d3d3d3" points="214.8082,-99.0569 225.3895,-99.5931 217.452,-92.5754 214.8082,-99.0569"/>
</g>
<!-- b&#45;&gt;d -->
<g id="edge4" class="edge">
<title>b&#45;&gt;d</title>
<path fill="none" stroke="#000000" d="M185.7472,-67.4688C195.1222,-61.7944 207.2873,-54.4314 218.2297,-47.8084"/>
<polygon fill="#000000" stroke="#000000" points="220.3029,-50.6448 227.0456,-42.4724 216.6782,-44.6562 220.3029,-50.6448"/>
</g>
<!-- f -->
<g id="node6" class="node">
<title>f</title>
<ellipse fill="none" stroke="#000000" cx="322" cy="-137" rx="18" ry="18"/>
<text text-anchor="middle" x="322" y="-132.8" font-family="Times,serif" font-size="14.00" fill="#000000">f</text>
</g>
<!-- c&#45;&gt;f -->
<g id="edge6" class="edge">
<title>c&#45;&gt;f</title>
<path fill="none" stroke="#000000" d="M266.7673,-115.9244C275.5463,-119.2742 285.882,-123.2181 295.2236,-126.7827"/>
<polygon fill="#000000" stroke="#000000" points="294.2586,-130.1606 304.8494,-130.4557 296.7542,-123.6205 294.2586,-130.1606"/>
</g>
<!-- e -->
<g id="node5" class="node">
<title>e</title>
<ellipse fill="none" stroke="#000000" cx="18" cy="-18" rx="18" ry="18"/>
<text text-anchor="middle" x="18" y="-13.8" font-family="Times,serif" font-size="14.00" fill="#000000">e</text>
</g>
<!-- e&#45;&gt;a -->
<g id="edge7" class="edge">
<title>e&#45;&gt;a</title>
<path fill="none" stroke="#d3d3d3" stroke-dasharray="5,2" d="M34.1176,-26.9071C43.2842,-31.9729 55.0278,-38.4627 65.6831,-44.3512"/>
<polygon fill="#d3d3d3" stroke="#d3d3d3" points="64.2292,-47.5466 74.6746,-49.3202 67.6151,-41.4199 64.2292,-47.5466"/>
</g>
<!-- e&#45;&gt;d -->
<g id="edge8" class="edge">
<title>e&#45;&gt;d</title>
<path fill="none" stroke="#000000" d="M36.2728,-19.0419C74.8815,-21.2432 165.1879,-26.3923 213.7473,-29.161"/>
<polygon fill="#000000" stroke="#000000" points="213.8252,-32.6711 224.0082,-29.7461 214.2237,-25.6824 213.8252,-32.6711"/>
</g>
<!-- g -->
<g id="node7" class="node">
<title>g</title>
<ellipse fill="none" stroke="#000000" cx="246" cy="-166" rx="18" ry="18"/>
<text text-anchor="middle" x="246" y="-161.8" font-family="Times,serif" font-size="14.00" fill="#000000">g</text>
</g>
<!-- g&#45;&gt;f -->
<g id="edge9" class="edge">
<title>g&#45;&gt;f</title>
<path fill="none" stroke="#000000" d="M262.8669,-159.564C272.5095,-155.8845 284.8142,-151.1893 295.6996,-147.0357"/>
<polygon fill="#000000" stroke="#000000" points="297.0851,-150.2532 305.1803,-143.418 294.5896,-143.7131 297.0851,-150.2532"/>
</g>
</g>
</svg>
